<?xml version="1.0" standalone="no"?>
<!DOCTYPE svg PUBLIC "-//W3C//DTD SVG 20010904//EN"
 "http://www.w3.org/TR/2001/REC-SVG-20010904/DTD/svg10.dtd">
<svg version="1.0" xmlns="http://www.w3.org/2000/svg"
 width="31.000000pt" height="31.000000pt" viewBox="0 0 31.000000 31.000000"
 preserveAspectRatio="xMidYMid meet">

<g transform="translate(0.000000,31.000000) scale(0.100000,-0.100000)"
fill="#000000" stroke="none">
<path d="M115 303 c-68 -18 -113 -92 -100 -167 9 -56 9 -67 0 -99 -7 -27 -7
-27 21 -17 16 7 45 8 69 4 58 -11 94 -6 131 16 82 51 85 182 6 239 -30 21 -93
33 -127 24z m96 -28 c61 -32 86 -113 54 -175 -24 -46 -64 -61 -149 -58 l-74 3
-1 30 c0 17 -3 51 -7 78 -7 55 8 87 59 117 39 24 78 25 118 5z"/>
<path d="M92 213 c-12 -23 -6 -41 25 -75 35 -37 79 -54 98 -38 8 7 15 16 15
20 0 14 -32 21 -45 10 -20 -16 -66 26 -59 54 7 31 -21 55 -34 29z"/>
</g>
</svg>
